<svg id="Capa_1" enable-background="new 0 0 497 497" height="512" viewBox="0 0 497 497" width="512" xmlns="http://www.w3.org/2000/svg"><path d="m261.87 0h-26.74c-3.574 0-6.651 2.522-7.354 6.026l-11.692 58.33h64.83l-11.692-58.33c-.701-3.504-3.779-6.026-7.352-6.026z" fill="#ffa786"/><path d="m416.521 252.331-56.007-145.444c-17.321-44.972-60.937-76.887-112.014-76.887s-94.693 31.915-112.014 76.887l-56.007 145.444c-7.731 20.072-11.979 41.873-11.979 64.669 0 99.411 80.589 180 180 180s180-80.589 180-180c0-22.796-4.248-44.597-11.979-64.669z" fill="#474867"/><path d="m388.525 263.112-56.007-145.443c-6.466-16.789-17.719-31.14-32.542-41.503-15.127-10.576-32.928-16.166-51.476-16.166v407c82.71 0 150-67.29 150-150 0-18.573-3.355-36.703-9.975-53.888z" fill="#43e6ac"/><path d="m368.5 317c0-14.873-2.682-29.375-7.971-43.107 0 0-42.004-109.082-56.006-145.442-5.129-13.319-13.396-41.921-22.927-52.284-9.726-10.577-21.171-16.167-33.096-16.167-18.548 0-36.349 5.59-51.477 16.166-14.823 10.363-26.076 24.714-32.541 41.501l-56.009 145.446c-6.618 17.184-9.973 35.314-9.973 53.887 0 82.71 67.29 150 150 150 66.168 0 120-67.29 120-150z" fill="#28ffa8"/><path d="m248.5 437c-66.168 0-120-53.832-120-120 0-14.872 2.682-29.375 7.969-43.104l56.01-145.448c4.31-11.189 11.825-20.767 21.734-27.694 10.062-7.035 21.919-10.754 34.287-10.754s24.225 3.719 34.287 10.753c9.909 6.928 17.426 16.506 21.736 27.697l56.006 145.442c5.289 13.732 7.971 28.234 7.971 43.107 0 66.169-53.832 120.001-120 120.001z" fill="#fff7df"/><path d="m248.5 227v180c49.706 0 90-40.294 90-90s-40.294-90-90-90z" fill="#fc6962"/><path d="m308.5 317c0-49.706-26.863-90-60-90-49.706 0-90 40.294-90 90s40.294 90 90 90c33.137 0 60-40.294 60-90z" fill="#ff8a7d"/></svg>