<?xml version="1.0" encoding="iso-8859-1"?>
<!-- Generator: Adobe Illustrator 19.0.0, SVG Export Plug-In . SVG Version: 6.00 Build 0)  -->
<svg version="1.1" id="Capa_1" xmlns="http://www.w3.org/2000/svg" xmlns:xlink="http://www.w3.org/1999/xlink" x="0px" y="0px"
	 viewBox="0 0 511.998 511.998" style="enable-background:new 0 0 511.998 511.998;" xml:space="preserve">
<path style="fill:#67C787;" d="M117.038,69.066c30.416,36.249,38.724,82.972,40.953,108.413c0.837,9.559-8.061,17.025-17.329,14.54
	c-24.667-6.613-69.238-22.908-99.655-59.157C10.592,96.614,2.284,49.89,0.055,24.45C-0.783,14.891,8.116,7.424,17.384,9.909
	C42.051,16.522,86.621,32.817,117.038,69.066z"/>
<path style="opacity:0.1;enable-background:new    ;" d="M157.991,177.479c-2.229-25.441-10.537-72.164-40.953-108.413
	c-2.616-3.117-5.342-6.076-8.145-8.904c-31.924,15.775-54.127,48.236-55.21,85.993c29.136,27.07,65.559,40.122,86.979,45.864
	C149.931,194.504,158.829,187.038,157.991,177.479z"/>
<path style="opacity:0.1;enable-background:new    ;" d="M118.465,155.465c-2.141,0-4.266-0.911-5.749-2.679L33.84,58.785
	c-2.663-3.174-2.249-7.904,0.924-10.566c3.174-2.664,7.904-2.248,10.566,0.924l78.876,94.001c2.663,3.174,2.249,7.904-0.924,10.566
	C121.877,154.89,120.166,155.465,118.465,155.465z"/>
<path style="fill:#E9F4A4;" d="M276.528,165.663v-1.311c0-54.64-43.704-99.931-98.343-100.336
	c-55.073-0.408-99.846,44.113-99.846,99.092v2.545c0,30.898-10.316,60.743-28.557,85.682c-19.574,26.761-30.937,59.905-30.374,95.73
	c1.312,83.531,68.364,152.205,151.844,155.388c90.103,3.436,164.228-68.59,164.228-157.928c0-35.101-11.446-67.524-30.806-93.75
	C286.466,226.11,276.528,196.32,276.528,165.663z"/>
<path style="fill:#A8EFBB;" d="M304.673,250.774c-18.207-24.664-28.145-54.454-28.145-85.111v-1.311
	c0-54.64-43.705-99.931-98.343-100.336c-55.073-0.408-99.846,44.113-99.846,99.092v2.545c0,30.898-10.316,60.743-28.557,85.682
	c-19.574,26.761-30.937,59.905-30.374,95.729c1.312,83.531,68.364,152.205,151.844,155.388
	c90.103,3.436,164.228-68.59,164.228-157.928C335.48,309.424,324.033,277,304.673,250.774z M269.391,436.483
	c-24.56,24.56-57.218,38.088-91.952,38.088c-0.002,0-0.002,0-0.004,0c-1.697,0-3.418-0.033-5.117-0.098
	c-33.172-1.266-64.345-15.169-87.773-39.151c-23.429-23.981-36.619-55.481-37.141-88.697c-0.448-28.571,8.19-55.806,24.979-78.76
	c22.215-30.371,33.957-65.715,33.957-102.212v-2.545c0-39.202,31.892-71.095,71.095-71.095l0.543,0.002
	c38.902,0.288,70.552,32.738,70.552,72.337v1.311c0,36.766,11.625,71.947,33.617,101.74c16.574,22.451,25.334,49.119,25.334,77.121
	C307.479,379.263,293.953,411.921,269.391,436.483z"/>
<path style="opacity:0.1;enable-background:new    ;" d="M164.14,64.905c-48.441,6.496-85.801,47.983-85.801,98.203v2.545
	c0,30.898-10.316,60.743-28.557,85.682c-19.574,26.761-30.937,59.905-30.374,95.729c1.312,83.531,68.364,152.205,151.844,155.388
	c31.055,1.184,60.211-6.598,85.089-20.962C41.741,385.943,111.117,141.971,164.14,64.905z"/>
<circle style="fill:#B38A82;" cx="177.43" cy="344.529" r="66.97"/>
<path style="opacity:0.1;enable-background:new    ;" d="M226.468,390.118c-71.11,12.594-92.238-80.764-67.064-110.088
	c-28.226,7.875-48.941,33.757-48.941,64.495c0,36.987,29.984,66.97,66.97,66.97C196.802,411.495,214.241,403.263,226.468,390.118z"
	/>
<path style="fill:#464D59;" d="M495.927,197.366l0.339-1.266c14.142-52.779-16.351-107.838-69.024-122.37
	c-53.091-14.648-107.861,16.768-122.091,69.874l-0.659,2.458c-7.997,29.845-25.686,56.004-49.76,75.371
	c-25.833,20.783-45.387,49.856-54.116,84.606c-20.352,81.024,26.641,164.713,106.452,189.394
	c86.143,26.639,176.385-23.747,199.507-110.041c9.085-33.904,6.421-68.186-5.492-98.529
	C489.882,258.325,487.993,226.979,495.927,197.366z"/>
<path style="opacity:0.1;enable-background:new    ;" d="M479.66,440.286c-163.616,75.816-243.546-104.785-158.501-188.92
	c42.048-41.598,13.615-119.129,33.458-169.745c-23.536,12.43-42.032,34.245-49.465,61.983l-0.658,2.458
	c-7.997,29.845-25.686,56.004-49.76,75.371c-25.833,20.783-45.387,49.856-54.116,84.606
	c-20.352,81.024,26.641,164.713,106.452,189.393C372.736,515.739,440.777,491.282,479.66,440.286z"/>
<g style="opacity:0.3;">
	<circle style="fill:#FFFFFF;" cx="251.91" cy="296.009" r="7.501"/>
	<circle style="fill:#FFFFFF;" cx="266.1" cy="396.489" r="7.501"/>
	<circle style="fill:#FFFFFF;" cx="308.59" cy="365.609" r="7.501"/>
	<circle style="fill:#FFFFFF;" cx="296.56" cy="418.999" r="7.501"/>
	<circle style="fill:#FFFFFF;" cx="449.4" cy="148.909" r="7.501"/>
	<circle style="fill:#FFFFFF;" cx="453.9" cy="211.909" r="7.501"/>
	<circle style="fill:#FFFFFF;" cx="414.47" cy="175.909" r="7.501"/>
</g>
<g style="opacity:0.1;">
	<circle cx="273.6" cy="338.109" r="7.501"/>
	<circle cx="321.16" cy="296.009" r="7.501"/>
	<circle cx="461.4" cy="277.559" r="7.501"/>
	<circle cx="394.31" cy="126.329" r="7.501"/>
	<circle cx="456.9" cy="393.939" r="7.501"/>
	<circle cx="471.9" cy="365.609" r="7.501"/>
</g>
<g>
</g>
<g>
</g>
<g>
</g>
<g>
</g>
<g>
</g>
<g>
</g>
<g>
</g>
<g>
</g>
<g>
</g>
<g>
</g>
<g>
</g>
<g>
</g>
<g>
</g>
<g>
</g>
<g>
</g>
</svg>
