<svg id="flat" height="512" viewBox="0 0 64 64" width="512" xmlns="http://www.w3.org/2000/svg"><path d="m34.50965 55.50965a5.08835 5.08835 0 0 0 3.59802 1.49035h12.89233l8-9v-7l.92492-.92492a3.67055 3.67055 0 0 0 1.07508-2.59547v-6.19205a3.67051 3.67051 0 0 0 -.80433-2.293l-2.59845-3.24807a3.67053 3.67053 0 0 1 -.75439-1.68953l-.51283-3.07724a3.67054 3.67054 0 0 0 -2.1747-2.77033l-3.38055-1.4488a3.67053 3.67053 0 0 1 -2.15336-2.65391l-.112-.56015a3.67057 3.67057 0 0 0 -3.08017-2.9138l-2.52556-.36079a3.67 3.67 0 0 1 -2.76361-1.99184l-.12569-.25137a3.67 3.67 0 0 0 -3.28254-2.02873h-9.46364a3.67 3.67 0 0 0 -3.28254 2.02872l-.12564.25138a3.67 3.67 0 0 1 -2.76353 1.99184l-2.52556.36079a3.67057 3.67057 0 0 0 -3.08017 2.9138l-.112.56015a3.67053 3.67053 0 0 1 -2.15336 2.65391l-3.38055 1.4488a3.67054 3.67054 0 0 0 -2.1747 2.77033l-.51296 3.07728a3.67053 3.67053 0 0 1 -.75439 1.68953l-2.59845 3.24806a3.67051 3.67051 0 0 0 -.80433 2.29297v6.19205a3.67055 3.67055 0 0 0 1.07508 2.59547l.92492.92492v9l6 7h17.58359a5.99994 5.99994 0 0 0 2.68328-.63344l2.08846-1.04423a1 1 0 0 1 1.15432.18732z" fill="#ffe9a0"/><g fill="#e6d290"><path d="m45.94434 34.00049a2.60841 2.60841 0 0 1 -1.23243-1.80957l-.498-2.99219a4.60671 4.60671 0 0 0 -1.668-2.84277l-2.52442-2.01953a4.64656 4.64656 0 0 0 -3.999-.873l-1.833.4585a2.61989 2.61989 0 0 1 -.63383.07807h-1.96972a4.58747 4.58747 0 0 0 -1.458.23682l-1.62128.54034-1.2586-2.51642a5.8646 5.8646 0 0 0 -5.2754-3.26074h-1.97266v2h1.97266a3.87561 3.87561 0 0 1 3.48634 2.15479l1.13337 2.26641a4.61689 4.61689 0 0 0 -2.98395 3.43818l-.374 1.87109a2.611 2.611 0 0 1 -.71485 1.33545l-1.86035 1.86035a4.60494 4.60494 0 0 0 -1.26074 4.165l.36328 1.814a4.60573 4.60573 0 0 0 1.64062 2.69727l3.14062 2.51269a2.60558 2.60558 0 0 1 .8457 1.21289 4.6204 4.6204 0 0 0 3.4697 3.06348l1.29492.25879a4.60305 4.60305 0 0 0 3.78613-.9209l2.69532-2.15674a2.62223 2.62223 0 0 1 1.63183-.57275h2.7334v-2h-2.7334a4.63163 4.63163 0 0 0 -2.88086 1.01074l-2.69629 2.15726a2.6041 2.6041 0 0 1 -2.14355.52148l-1.2949-.25882a2.61786 2.61786 0 0 1 -1.96485-1.73486 4.60069 4.60069 0 0 0 -1.49415-2.14258l-3.14062-2.51269a2.61269 2.61269 0 0 1 -.92871-1.52686l-.36328-1.81445a2.60971 2.60971 0 0 1 .71386-2.35889l1.85937-1.85933a4.60032 4.60032 0 0 0 1.26269-2.35742l.374-1.87256a2.6158 2.6158 0 0 1 1.73535-1.96485l3.457-1.15234a2.59281 2.59281 0 0 1 .82428-.13383h1.96972a4.61316 4.61316 0 0 0 1.11817-.1377l1.833-.45849a2.62864 2.62864 0 0 1 2.26464.49414l2.5254 2.02a2.60759 2.60759 0 0 1 .94433 1.60937l.498 2.9917a4.60282 4.60282 0 0 0 2.1758 3.19631l3.57031 2.14209 1.0293-1.71484z"/><path d="m35.27588 54.80371a6.98994 6.98994 0 0 0 .43994-.57471l1.11618-1.67431-1.664-1.10938-1.11621 1.67432a5.006 5.006 0 0 1 -1.92383 1.69824l-1.30859.6543a5.02555 5.02555 0 0 1 -2.23537.52783h-7.584v2h7.584a7.03332 7.03332 0 0 0 3.12989-.73877l1.30859-.6543a6.97408 6.97408 0 0 0 .75226-.43963 6.949 6.949 0 0 0 4.71061 1.8327h4.51465v-2h-4.51465a4.949 4.949 0 0 1 -3.20947-1.19629z"/><path d="m30 43h2v2h-2z"/><path d="m28 52h2v2h-2z"/><path d="m21 47h2v2h-2z"/><path d="m37 37h2v2h-2z"/><path d="m24 37h2v2h-2z"/><path d="m29 30h2v2h-2z"/><path d="m36 12h2v2h-2z"/><path d="m42 20h2v2h-2z"/><path d="m49 22h2v2h-2z"/><path d="m26 12h2v2h-2z"/><path d="m30 17h2v2h-2z"/><path d="m15 22h2v2h-2z"/><path d="m19 27h2v2h-2z"/></g><path d="m4.24938 42.43827 2.31236-2.89044a2 2 0 0 0 .43826-1.24939v-2.63177a2 2 0 0 1 .4-1.2l2.2-2.93334a2 2 0 0 0 .4-1.2v-1.33333a2 2 0 0 1 2-2 2 2 0 0 1 2 2v2.73216a2.00012 2.00012 0 0 0 .07047.52624l2.44176 8.95311a13.84309 13.84309 0 0 1 .48777 3.6423 10 10 0 0 0 4.18762 8.13734l1.98294 1.41638a1.98069 1.98069 0 0 1 .82944 1.61177 1.9807 1.9807 0 0 1 -1.9807 1.9807h-7.0193a12 12 0 0 1 -12-12 5.70156 5.70156 0 0 1 1.24938-3.56173z" fill="#4dc46e"/><path d="m13.63965 56.05615a11.05155 11.05155 0 0 1 -1.79395-10.728l.0791-.21777a10.53407 10.53407 0 0 0 .33008-6.21045l-.28418-1.14209-1.9414.48438.28613 1.14258a8.55426 8.55426 0 0 1 -.26855 5.03955l-.07911.21777a13.05594 13.05594 0 0 0 2.1211 12.67578l.32061.39411a12.01978 12.01978 0 0 0 2.59052.28799h.221z" fill="#43aa60"/><path d="m59.75062 42.43827-2.31236-2.89044a2 2 0 0 1 -.43826-1.24939v-2.63177a2 2 0 0 0 -.4-1.2l-2.2-2.93334a2 2 0 0 1 -.4-1.2v-1.33333a2 2 0 0 0 -2-2 2 2 0 0 0 -2 2v2.73216a2.00012 2.00012 0 0 1 -.07047.52624l-2.44176 8.95311a13.84309 13.84309 0 0 0 -.48777 3.6423 10 10 0 0 1 -4.18762 8.13734l-1.98294 1.41638a1.98069 1.98069 0 0 0 -.82944 1.61177 1.9807 1.9807 0 0 0 1.9807 1.9807h7.0193a12 12 0 0 0 12-12 5.70156 5.70156 0 0 0 -1.24938-3.56173z" fill="#4dc46e"/><path d="m54.02246 44.61328-.07031-.1914a8.54613 8.54613 0 0 1 -.2666-5.0376l.28418-1.14209-1.94043-.48438-.28418 1.1416a10.53773 10.53773 0 0 0 .3291 6.20948l.06933.19091a11.04342 11.04342 0 0 1 -1.82324 10.76026l-1.59125 1.93994h.27094a12.02561 12.02561 0 0 0 2.54266-.2757l.32453-.39569a13.05439 13.05439 0 0 0 2.15527-12.71533z" fill="#43aa60"/></svg>