<svg id="Fill_Outline" height="512" viewBox="0 0 64 64" width="512" xmlns="http://www.w3.org/2000/svg" data-name="Fill Outline"><path d="m20.3 14.74-1.291.346a.9.9 0 0 1 -1.053-.5l-.438-.962a51.539 51.539 0 0 1 -2.868-8l-.191-.713 4.83-1.294a51.438 51.438 0 0 0 1.648 10.013.9.9 0 0 1 -.637 1.11z" fill="#c4f236"/><path d="m20.936 13.636c-.313-1.166-.569-2.346-.8-3.53a2.957 2.957 0 0 1 -2.4-1.943q-.606-1.746-1.087-3.533l-.075-.28-2.116.567.191.713a51.539 51.539 0 0 0 2.868 8l.438.962a.9.9 0 0 0 1.053.5l1.292-.352a.9.9 0 0 0 .637-1.1z" fill="#a1d51c"/><path d="m42.1 14h-1.337a.9.9 0 0 1 -.888-.753l-.175-1.047a51.419 51.419 0 0 1 -.7-8.462v-.738h5a51.5 51.5 0 0 0 -1 10.1.9.9 0 0 1 -.9.9z" fill="#c4f236"/><path d="m41.057 6.141q-.057-1.2-.057-2.403v-.738h-2v.738a51.419 51.419 0 0 0 .7 8.466l.174 1.043a.9.9 0 0 0 .888.753h1.338a.9.9 0 0 0 .9-.9c0-1.21.058-2.418.143-3.624a4.033 4.033 0 0 1 -2.086-3.335z" fill="#a1d51c"/><path d="m51 4h4a0 0 0 0 1 0 0 8 8 0 0 1 -8 8h-4a0 0 0 0 1 0 0 8 8 0 0 1 8-8z" fill="#c4f236"/><path d="m51 22.343a10.227 10.227 0 0 0 -9.334-10.321 10 10 0 0 0 -10.666 9.978v.339a20.71 20.71 0 0 1 -3.913 11.911 16.9 16.9 0 0 0 -3.011 11.374 17 17 0 0 0 33.924-1.624 16.865 16.865 0 0 0 -3.185-9.887 20.157 20.157 0 0 1 -3.815-11.77z" fill="#f89c8d"/><path d="m38 20v-7.528a9.993 9.993 0 0 0 -7 9.528v.339a20.71 20.71 0 0 1 -3.913 11.911 16.9 16.9 0 0 0 -3.011 11.374 16.99 16.99 0 0 0 33.678 1.14 28.011 28.011 0 0 1 -19.754-26.764z" fill="#f8664f"/><path d="m31.055 20.494a10.227 10.227 0 0 0 -11.687-7.553 10 10 0 0 0 -7.72 12.4l.088.328a20.716 20.716 0 0 1 -.7 12.517 16.9 16.9 0 0 0 .034 11.766 17 17 0 0 0 32.352-10.352 16.859 16.859 0 0 0 -5.635-8.725 20.167 20.167 0 0 1 -6.732-10.381z" fill="#fcbc04"/><path d="m17.074 47.951a16.9 16.9 0 0 1 -.034-11.766 20.716 20.716 0 0 0 .7-12.517l-.088-.328a10 10 0 0 1 3.668-10.585 9.6 9.6 0 0 0 -1.948.186 10 10 0 0 0 -7.72 12.4l.088.328a20.716 20.716 0 0 1 -.7 12.517 16.9 16.9 0 0 0 .034 11.766 16.98 16.98 0 0 0 24.22 8.885 17.1 17.1 0 0 1 -18.22-10.886z" fill="#e59730"/><path d="m30.366 56.559c-.227.061-.46.117-.693.167a13.033 13.033 0 0 1 -14.848-8.164 12.831 12.831 0 0 1 -.03-9 24.651 24.651 0 0 0 .8-14.933l-.088-.327a6.008 6.008 0 0 1 4.244-7.349c.129-.035.262-.066.395-.093a6.274 6.274 0 0 1 7.041 4.667 24.02 24.02 0 0 0 8.064 12.444 12.991 12.991 0 0 1 -4.888 22.585z" fill="#f9e109"/><path d="m33.315 44.381a2 2 0 1 1 -3.864 1.035c-.286-1.067-1.136-3.836-.069-4.122s3.647 2.02 3.933 3.087z" fill="#fcbc04"/><path d="m25.587 46.452a2 2 0 1 1 -3.863 1.035c-.286-1.067.795-4.354 1.862-4.64s1.714 2.538 2.001 3.605z" fill="#fcbc04"/><path d="m17.074 47.951a16.9 16.9 0 0 1 -.034-11.766 20.716 20.716 0 0 0 .7-12.517l-.088-.328a9.94 9.94 0 0 1 .07-5.39 6.005 6.005 0 0 0 -2.206 6.355l.088.327a24.651 24.651 0 0 1 -.8 14.933 12.831 12.831 0 0 0 .03 9 13.015 13.015 0 0 0 9.839 8.215 16.89 16.89 0 0 1 -7.599-8.829z" fill="#fcbc04"/><path d="m48 8h-3.921a7.955 7.955 0 0 0 -1.079 4h4a8 8 0 0 0 8-8h-.079a7.991 7.991 0 0 1 -6.921 4z" fill="#a1d51c"/><g fill="#39519d"><path d="m55.627 33.529a19.047 19.047 0 0 1 -3.627-11.186 11.456 11.456 0 0 0 -4.786-9.354 9 9 0 0 0 8.786-8.989 1 1 0 0 0 -1-1h-4a8.968 8.968 0 0 0 -6.451 2.738c.124-.855.264-1.7.431-2.542a1 1 0 0 0 -.98-1.196h-5a1 1 0 0 0 -1 1v.738a52.522 52.522 0 0 0 .561 7.561 11.01 11.01 0 0 0 -6.048 3.721 1 1 0 1 0 1.545 1.269 8.887 8.887 0 0 1 7.542-3.269 9.2 9.2 0 0 1 8.4 9.323 21.036 21.036 0 0 0 4 12.357 15.993 15.993 0 0 1 -13.869 25.278c-.1-.006-.592-.062-.592-.062a1 1 0 1 0 -.178 1.992s1.322.092 1.651.092a17.985 17.985 0 0 0 14.615-28.471zm-4.627-28.529h2.929a7.011 7.011 0 0 1 -6.929 6h-2.929a7.011 7.011 0 0 1 6.929-6zm-10.461 6.017a50.78 50.78 0 0 1 -.539-7.017h2.8a52.769 52.769 0 0 0 -.728 6.947c0 .038-.013.075-.017.113-.107-.01-.212-.03-.32-.037a11.007 11.007 0 0 0 -1.196-.006z"/><path d="m32.279 41.56c-.866-.716-2.115-1.51-3.156-1.232a1.569 1.569 0 0 0 -.972.757c-.579 1.01-.2 2.629.266 4.34l.068.25a3 3 0 0 0 3.674 2.125 3 3 0 0 0 2.121-3.675 6.454 6.454 0 0 0 -2.001-2.565zm-.03 3.839a.994.994 0 0 1 -.607.466 1.006 1.006 0 0 1 -1.225-.708l-.071-.262a10.342 10.342 0 0 1 -.494-2.558 6.453 6.453 0 0 1 2.5 2.3.992.992 0 0 1 -.103.763z"/><path d="m24.547 42.051a1.559 1.559 0 0 0 -1.22-.17c-1.8.483-2.945 4.464-2.569 5.865a3.005 3.005 0 0 0 2.9 2.224 3 3 0 0 0 2.9-3.778l-.066-.249c-.435-1.649-.939-3.307-1.945-3.892zm-.633 5.885a.985.985 0 0 1 -.759-.1 1 1 0 0 1 -.466-.607 6.652 6.652 0 0 1 1-3.265 10.107 10.107 0 0 1 .864 2.484l.069.262a1 1 0 0 1 -.708 1.226z"/><path d="m42.346 53.413a17.974 17.974 0 0 0 -3.926-23.313 19.057 19.057 0 0 1 -6.4-9.868 11.308 11.308 0 0 0 -10.5-8.466 50.51 50.51 0 0 1 -1.238-8.21 1 1 0 0 0 -1.257-.9l-4.825 1.295a1 1 0 0 0 -.707 1.226l.192.712a52.459 52.459 0 0 0 2.489 7.137 10.9 10.9 0 0 0 -4.207 3.918 11.038 11.038 0 0 0 -1.284 8.656l.088.328a18.722 18.722 0 0 1 .583 6.044 1 1 0 0 0 2 .129 20.716 20.716 0 0 0 -.648-6.691l-.088-.328a9 9 0 0 1 5.253-10.644h.018l.007-.006a9.244 9.244 0 0 1 1.672-.506 9.2 9.2 0 0 1 10.522 6.827 21.035 21.035 0 0 0 7.064 10.9 15.991 15.991 0 0 1 -6.854 28.007 16.045 16.045 0 0 1 -18.288-10.06 15.8 15.8 0 0 1 -.034-11.074 23.61 23.61 0 0 0 .7-2.312 1 1 0 1 0 -1.938-.494 21.541 21.541 0 0 1 -.643 2.117 17.982 17.982 0 0 0 16.933 24.163 18 18 0 0 0 15.316-8.59zm-24.328-41.156a50.539 50.539 0 0 1 -2.334-6.633l2.7-.724a52.91 52.91 0 0 0 1.12 7.012c-.11.019-.22.027-.33.049a11.291 11.291 0 0 0 -1.156.296z"/><path d="m13.888 48.909a14.047 14.047 0 0 0 13.129 9.1 13.826 13.826 0 0 0 2.861-.3c.251-.052.5-.113.745-.178l.031-.008a14 14 0 0 0 9.166-19.149 1 1 0 1 0 -1.832.8 12.326 12.326 0 0 1 .605 1.721 12 12 0 0 1 -8.484 14.7l-.022.006c-.2.053-.41.1-.621.148a12.025 12.025 0 0 1 -13.7-7.533 11.841 11.841 0 0 1 -.03-8.3 25.643 25.643 0 0 0 .832-15.538l-.087-.326a5 5 0 0 1 3.541-6.125c.106-.029.215-.055.329-.077a5.265 5.265 0 0 1 5.878 3.945 25.017 25.017 0 0 0 8.4 12.96 11.981 11.981 0 0 1 1.4 1.346 1 1 0 1 0 1.5-1.323 14.059 14.059 0 0 0 -1.64-1.578 23.032 23.032 0 0 1 -7.732-11.929 7.289 7.289 0 0 0 -8.2-5.389c-.157.031-.313.068-.461.108a7.007 7.007 0 0 0 -4.951 8.574l.088.327a23.658 23.658 0 0 1 -.778 14.33 13.815 13.815 0 0 0 .033 9.688z"/></g></svg>