<svg height="511pt" viewBox="1 -9 511.99998 511" width="511pt" xmlns="http://www.w3.org/2000/svg"><path d="m293.640625.5-18.074219 95.621094h-39.140625l-18.070312-95.621094zm0 0" fill="#67c1b0"/><path d="m315.925781 96.125h-119.851562c-19.226563 0-34.8125 15.589844-34.8125 34.816406v40.351563h189.476562v-40.351563c0-19.226562-15.585937-34.816406-34.8125-34.816406zm0 0" fill="#67c1b0"/><path d="m250.882812 96.125h-54.808593c-19.226563 0-34.8125 15.589844-34.8125 34.816406v40.351563h54.804687v-40.351563c0-19.226562 15.589844-34.816406 34.816406-34.816406zm0 0" fill="#51a2af"/><path d="m512 313.707031c0 99.410157-80.589844 180.011719-180 180.011719-13.019531 0-25.726562-1.390625-37.972656-4.03125-.007813 0-.007813 0-.019532 0h-19.511718l-30.746094-.011719h-25.777344c-.011718 0-.011718 0-.023437 0-12.222657 2.652344-24.929688 4.042969-37.960938 4.042969-99.410156 0-179.988281-80.601562-179.988281-180.011719 0-99.414062 80.578125-180 179.988281-180 13.03125 0 25.714844 1.386719 37.941407 4.027344.011718 0 .03125.011719.042968.011719h25.753906.011719l30.734375-.011719h19.523438.011718c12.257813-2.640625 24.960938-4.027344 37.992188-4.027344 99.410156 0 180 80.585938 180 180zm0 0" fill="#ff9216"/><g fill="#e8590c"><path d="m217.960938 489.675781c-12.246094 2.644531-24.929688 4.042969-37.972657 4.042969-99.410156 0-179.988281-80.597656-179.988281-180.011719 0-99.410156 80.578125-180 179.988281-180 13.03125 0 25.714844 1.386719 37.953125 4.03125-81.132812 17.464844-141.945312 89.617188-141.945312 175.96875 0 86.363281 60.824218 158.523438 141.964844 175.96875zm0 0"/><path d="m243.75 489.675781h-6.234375c-39.464844-17.445312-69.03125-89.609375-69.03125-175.96875 0-86.339843 29.554687-158.492187 69.011719-175.960937h6.230468c-26.152343 17.476562-45.75 89.628906-45.75 175.960937 0 86.371094 19.609376 158.511719 45.773438 175.96875zm0 0"/><path d="m224.277344 489.675781h-6.304688c-.011718 0-.011718 0-.023437 0-81.140625-17.464843-141.945313-89.617187-141.945313-175.96875 0-86.339843 60.792969-158.492187 141.925782-175.972656.011718 0 .03125.011719.042968.011719h6.261719c-67.652344 17.476562-118.359375 89.621094-118.359375 175.960937 0 86.359375 50.730469 158.511719 118.402344 175.96875zm0 0"/><path d="m369.15625 313.714844c0 82.082031-26.714844 151.34375-63.246094 172.984375-3.90625 1.128906-7.871094 2.132812-11.882812 2.988281-.007813 0-.007813 0-.019532 0h-19.511718c39.441406-17.457031 69.019531-89.621094 69.019531-175.972656 0-86.371094-29.589844-158.535156-69.042969-175.980469h19.523438.011718c.039063.011719.082032.019531.121094.027344 9.910156 2.144531 18.996094 7.164062 26.125 14.378906 28.972656 29.335937 48.902344 90.671875 48.902344 161.574219zm0 0"/></g><path d="m254.195312.5v95.621094h-17.769531l-18.070312-95.621094zm0 0" fill="#51a2af"/></svg>