<svg height="511pt" viewBox="0 0 511.99968 511" width="511pt" xmlns="http://www.w3.org/2000/svg"><path d="m494.832031 73.0625c-18.632812 6.8125-40.519531 16.648438-66.046875 20.9375-51.003906 8.566406-165.253906-2.824219-239.832031 71.753906-36.117187 36.121094-62.507813 67.257813-81.710937 151.554688-14.9375 65.570312-48.414063 134.355468-40.660157 183.585937 49.167969 7.714844 117.839844-25.769531 183.308594-40.71875 84.203125-19.226562 117.910156-43.222656 151.386719-81.800781 59.523437-68.605469 59.742187-189.722656 71.675781-240.097656 6.128906-25.871094 15.542969-47.246094 21.878906-65.214844zm0 0" fill="#ff7031"/><path d="m499.363281 12.398438c-20.570312-20.59375-47.019531-10.414063-75.019531.367187-15.457031 5.949219-32.972656 12.691406-52.28125 15.9375-10.414062 1.75-23.867188 2.640625-39.445312 3.675781-57.609376 3.832032-144.667969 9.617188-206.042969 70.992188-37.027344 37.027344-64.761719 69.9375-84.511719 156.621094-4.886719 21.441406-11.902344 43.578124-18.683594 64.984374-10.121094 31.925782-19.675781 62.085938-22.542968 89.734376-3.410157 32.882812 3.613281 57.558593 21.464843 75.429687 14.949219 14.964844 34.65625 22.332031 59.957031 22.332031 4.921876 0 10.058594-.277344 15.410157-.835937 27.621093-2.871094 57.746093-12.4375 89.640625-22.570313 21.382812-6.792968 43.496094-13.8125 64.910156-18.703125 87.09375-19.886719 122.351562-45.265625 156.953125-85.140625 47.140625-54.332031 58.335937-137.484375 66.511719-198.199218 2.503906-18.582032 4.664062-34.628907 7.4375-46.335938 4.355468-18.394531 10.515625-34.648438 15.949218-48.988281 11.734376-30.964844 21.867188-57.703125.292969-79.300781zm-19.835937 71.894531c-5.65625 14.933593-12.070313 31.863281-16.742188 51.578125-3.011718 12.710937-5.234375 29.234375-7.8125 48.363281-.253906 1.894531-.511718 3.8125-.777344 5.75l-73.65625-73.738281c-4.078124-4.082032-10.695312-4.085938-14.777343-.007813s-4.089844 10.695313-.007813 14.777344l82.769532 82.863281c.628906.632813 1.328124 1.152344 2.058593 1.589844-6.164062 40.8125-15.550781 86.800781-35.820312 124.605469l-61.566407-61.632813c-4.078124-4.082031-10.691406-4.085937-14.777343-.007812-4.082031 4.078125-4.085938 10.695312-.007813 14.777344l65.128906 65.203124c-3.175781 4.554688-6.542968 8.949219-10.15625 13.113282-32.414062 37.359375-63.863281 59.75-145.816406 78.460937-22.261718 5.085938-44.792968 12.238281-66.582031 19.160157-35.792969 11.371093-70.371094 22.355468-98.691406 22.355468-18.042969 0-33.550781-4.464844-45.207031-16.128906-29.949219-29.984375-12.382813-85.40625 6.214843-144.082031 1.996094-6.296875 4.003907-12.660157 5.984375-19.054688l72.828125 72.910157c2.039063 2.046874 4.71875 3.066406 7.394531 3.066406 2.671876 0 5.34375-1.019532 7.382813-3.054688 4.082031-4.082031 4.085937-10.695312.007813-14.78125l-80.835938-80.925781c2.332031-8.273437 4.496094-16.5625 6.375-24.816406 12.113281-53.164063 26.863281-84.164063 45.5625-109.195313l76.796875 76.882813c2.042969 2.042969 4.71875 3.066406 7.394531 3.066406 2.671875 0 5.34375-1.019531 7.382813-3.058594 4.085937-4.078125 4.089843-10.695312.011719-14.777343l-78.285157-78.371094c6.277344-7.070313 12.945313-13.929688 20.046875-21.03125 55.824219-55.824219 134.910156-61.082032 192.65625-64.917969 16.136719-1.074219 30.074219-2 41.519532-3.921875 21.386718-3.59375 39.949218-10.738281 56.328124-17.042969 16.851563-6.488281 28.9375-10.886719 38.183594-10.886719 5.808594 0 10.496094 1.738282 14.539063 5.785157 11.523437 11.535156 6.492187 26.679687-5.046875 57.125zm0 0"/><path d="m208.804688 256.355469c2.039062 2.039062 4.714843 3.058593 7.390624 3.058593 2.671876 0 5.347657-1.019531 7.386719-3.058593 4.082031-4.082031 4.082031-10.699219 0-14.78125l-.097656-.09375c-4.078125-4.082031-10.695313-4.082031-14.777344 0-4.082031 4.078125-4.082031 10.695312 0 14.777343zm0 0"/><path d="m356.535156 92.214844c-4.082031-4.078125-10.699218-4.078125-14.78125 0-4.078125 4.082031-4.078125 10.699218 0 14.78125l.097656.097656c2.042969 2.039062 4.714844 3.058594 7.390626 3.058594 2.671874 0 5.347656-1.019532 7.386718-3.058594 4.082032-4.082031 4.082032-10.699219 0-14.78125zm0 0"/><path d="m219.925781 361.09375c-4.078125-4.082031-10.695312-4.085938-14.78125-.007812-4.082031 4.078124-4.085937 10.695312-.007812 14.777343l28.777343 28.808594c2.042969 2.042969 4.71875 3.066406 7.394532 3.066406 2.671875 0 5.34375-1.019531 7.386718-3.054687 4.082032-4.078125 4.085938-10.695313.007813-14.78125zm0 0"/></svg>