<svg id="Layer_35" enable-background="new 0 0 64 64" height="512" viewBox="0 0 64 64" width="512" xmlns="http://www.w3.org/2000/svg"><path d="m14 28.6v26c-7.29-2.19-12-5.67-12-9.6v-26c0 3.93 4.71 7.41 12 9.6z" fill="#ccd1d9"/><path d="m62 19v26c0 3.93-4.71 7.41-12 9.6v-26c7.29-2.19 12-5.67 12-9.6z" fill="#ccd1d9"/><path d="m50 28.6v26c-5.02 1.51-11.25 2.4-18 2.4s-12.98-.89-18-2.4v-26c5.02 1.51 11.25 2.4 18 2.4s12.98-.89 18-2.4z" fill="#e6e9ed"/><path d="m45.11 42.55c.54.28.89.84.89 1.45s-.35 1.17-.89 1.45l-5.4 2.69c-1.12.57-2.37.86-3.62.86-.72 0-1.44-.1-2.14-.29l-9.95-2.71-6 3v-10l6 3 9.95-2.71c.7-.19 1.42-.29 2.14-.29 1.25 0 2.5.29 3.62.86z" fill="#ff826e"/><path d="m62 19c0 3.93-4.71 7.41-12 9.6-5.02 1.51-11.25 2.4-18 2.4s-12.98-.89-18-2.4c-7.29-2.19-12-5.67-12-9.6 0-6.63 13.43-12 30-12s30 5.37 30 12z" fill="#fcd770"/><path d="m32 11c17.15 0 26 5.61 26 8s-8.85 8-26 8-26-5.61-26-8 8.85-8 26-8z" fill="#ffeaa7"/><path d="m40.11 16.01 9.03.69c1.03.08 2.02.58 2.57 1.45.19.31.29.6.29.85s-.1.54-.29.85c-.55.87-1.54 1.37-2.57 1.45l-9.03.69c-.07.01-.15.01-.22.01-1.6 0-2.89-1.29-2.89-2.89v-.06c0-1.55 1.15-2.94 2.7-3.04.13-.01.27-.01.41 0z" fill="#969faa"/><path d="m45.553 41.658-5.394-2.697c-1.981-.991-4.33-1.224-6.47-.641l-9.584 2.614-7.105-3.552v13.236l7.105-3.553 9.584 2.614c2.14.582 4.488.35 6.47-.641l5.394-2.697c.892-.445 1.447-1.343 1.447-2.341s-.555-1.896-1.447-2.342zm-.895 2.895-5.394 2.697c-1.546.774-3.379.956-5.05.5l-10.32-2.815-4.894 2.447v-6.764l4.895 2.447 10.32-2.815c1.67-.454 3.503-.274 5.05.5l5.394 2.697c.21.106.341.317.341.553s-.131.447-.342.553z"/><path d="m39.186 35.671-.184-1.991c-.652.06-1.309.112-1.968.155l.131 1.996c.677-.045 1.351-.098 2.021-.16z"/><path d="m47.209 34.464-.418-1.956c-.635.136-1.278.263-1.93.38l.354 1.969c.673-.122 1.338-.253 1.994-.393z"/><path d="m43.212 35.187-.295-1.979c-.646.097-1.298.184-1.953.263l.238 1.985c.675-.081 1.346-.171 2.01-.269z"/><path d="m32 6c-17.383 0-31 5.71-31 13v26c0 7.29 13.617 13 31 13s31-5.71 31-13v-26c0-7.29-13.617-13-31-13zm0 2c17.347 0 29 5.688 29 11s-11.653 11-29 11-29-5.688-29-11 11.653-11 29-11zm-29 37v-21.326c2.03 2.273 5.512 4.223 10 5.664v23.903c-6.313-2.146-10-5.253-10-8.241zm12 8.861v-23.933c4.853 1.313 10.675 2.072 17 2.072s12.147-.759 17-2.072v23.933c-4.624 1.314-10.398 2.139-17 2.139s-12.376-.825-17-2.139zm46-8.861c0 2.988-3.687 6.095-10 8.241v-23.903c4.488-1.441 7.97-3.391 10-5.664z"/><path d="m57 45c-.007.257-.814 1.658-4.42 3.324l.84 1.815c3.546-1.639 5.58-3.513 5.58-5.139v-2h-2z"/><path d="m39.889 23c.101 0 .202-.004.298-.012l9.032-.694c1.404-.108 2.651-.825 3.336-1.917.296-.473.445-.936.445-1.377s-.149-.904-.445-1.377c-.685-1.092-1.932-1.809-3.336-1.917l-9.034-.695c-.184-.013-.37-.015-.556-.002-2.035.134-3.629 1.909-3.629 4.102 0 2.144 1.744 3.889 3.889 3.889zm-.128-5.996c.044-.003.086-.004.128-.004.049 0 .098.002.145.005l9.031.695c.775.06 1.446.428 1.795.984.133.214.14.315.14.315 0 .001-.006.101-.141.316-.349.557-1.02.925-1.794.985l-9.035.695c-1.062.078-2.03-.792-2.03-1.944 0-1.065.79-1.983 1.761-2.047z"/><path d="m32 28c16.481 0 27-5.331 27-9s-10.519-9-27-9-27 5.331-27 9 10.519 9 27 9zm0-16c17.121 0 24.963 5.564 25 7-.037 1.436-7.879 7-25 7s-24.963-5.564-25-7c.037-1.436 7.879-7 25-7z"/><path d="m57 39h2v2h-2z"/><path d="m9 48h2v2h-2z"/><path d="m9 44h2v2h-2z"/><path d="m9 40h2v2h-2z"/></svg>