<?xml version="1.0" encoding="iso-8859-1"?>
<!-- Generator: Adobe Illustrator 19.0.0, SVG Export Plug-In . SVG Version: 6.00 Build 0)  -->
<svg version="1.1" id="Capa_1" xmlns="http://www.w3.org/2000/svg" xmlns:xlink="http://www.w3.org/1999/xlink" x="0px" y="0px"
	 viewBox="0 0 384.056 384.056" style="enable-background:new 0 0 384.056 384.056;" xml:space="preserve">
<path style="fill:#00FFB0;" d="M192.016,350.72c24.72,24.72,66.24,24.8,90.96,0.08c70.24-70.32,50.48-180.4,50.48-180.4
	c-1.92-18-9.76-35.6-23.6-49.44c-32-32-85.84-32-117.84,0c-1.04-1.04-2.08-2-3.12-2.96c-32.24-29.04-82.88-28-113.84,2.96
	c-13.92,13.92-21.76,31.52-23.6,49.6c0,0-22.96,106.88,50.32,180.24C126.496,375.52,167.296,375.44,192.016,350.72z"/>
<g>
	<path style="fill:#000A64;" d="M146.824,384.056c15.832,0,31.672-4.672,45.24-14c31.088,21.032,74.984,17.944,102.224-9.296h0.008
		c73.336-73.416,56.72-183.816,55.008-193.944c-2.472-22.072-12.448-42.824-28.136-58.512
		c-23.72-23.728-57.648-32.664-89.064-26.816c9.216-8.592,15.024-20.8,15.024-34.36l0.048-29.928c0.008-4.568-1.928-8.672-5-11.592
		c-2.872-3.104-6.936-5.088-11.496-5.16L200.048,0c-21.952,0-40.384,15.144-45.536,35.52c-13.328-5.576-27.744-7.56-41.336-7.56
		c-8.832,0-16,7.168-16,16s7.168,16,16,16c18.168,0,38.008,3.648,49.904,24c-34.04-10.664-72.536-2.472-99.328,24.32
		c-15.712,15.712-25.68,36.44-28.12,58.456C33.304,178.44,14.728,284.92,90.464,360.744
		C105.992,376.288,126.4,384.056,146.824,384.056z M199.824,32l15.336,0.224l-0.024,14.872c0,8.304-6.744,15.048-15.024,15.048
		c-8.288,0-15.04-6.752-15.04-15.048c0-0.088-0.024-0.168-0.024-0.256C185.16,38.64,191.832,32,199.824,32z M67.096,172.56
		c0.128-0.576,0.216-1.152,0.272-1.736c1.552-15.24,8.128-29.032,19-39.912c23.256-23.248,61.176-25.536,87.168-6.176
		c0.208,3.472,0.336,7.08,0.336,10.92c0,8.832,7.168,16,16,16c8.84,0,16-7.168,16-16c0-2.392-0.176-4.528-0.248-6.816
		c26.032-23.64,67.84-23,92.92,2.072c10.648,10.656,17.4,24.8,18.992,39.816c0.048,0.376,0.104,0.76,0.16,1.136
		c0.192,1.016,17.544,102.584-46.04,166.264c-18.488,18.496-49.776,18.472-68.336-0.08c-3.12-3.128-7.208-4.688-11.304-4.688
		c-4.096,0-8.184,1.56-11.312,4.688c-18.36,18.344-49.312,18.384-67.608,0.088C47.064,272.032,66.896,173.52,67.096,172.56z"/>
	<path style="fill:#000A64;" d="M190.496,209.512c29.528,0,41.496-21.464,43.696-32.808c1.68-8.672-3.992-17.072-12.664-18.752
		c-8.696-1.688-17.072,3.992-18.76,12.664c-0.056,0.28-1.464,6.904-12.272,6.904c-9.968,0-12.896-5.624-13.704-8.112
		c-2.296-8.36-10.88-13.36-19.336-11.256c-8.568,2.168-13.76,10.856-11.6,19.432C148.648,188.616,161.56,209.512,190.496,209.512z"
		/>
</g>
<g>
</g>
<g>
</g>
<g>
</g>
<g>
</g>
<g>
</g>
<g>
</g>
<g>
</g>
<g>
</g>
<g>
</g>
<g>
</g>
<g>
</g>
<g>
</g>
<g>
</g>
<g>
</g>
<g>
</g>
</svg>
