<?xml version="1.0" encoding="iso-8859-1"?>
<!-- Generator: Adobe Illustrator 19.0.0, SVG Export Plug-In . SVG Version: 6.00 Build 0)  -->
<svg version="1.1" id="Capa_1" xmlns="http://www.w3.org/2000/svg" xmlns:xlink="http://www.w3.org/1999/xlink" x="0px" y="0px"
	 viewBox="0 0 512 512" style="enable-background:new 0 0 512 512;" xml:space="preserve">
<path style="fill:#FFEB99;" d="M458.075,481.031c-21.658,6.133-69.286-7.261-69.286-7.261
	c-109.55-36.582-172.661-97.531-208.674-159.939c-49.965-86.589-47.763-176.022-45.073-207.185
	c1.955-22.733,11.284-46.852,23.395-66.141c7.654-12.194,17.862-23.53,31.328-29.29c2.513-1.076,5.12-1.944,7.778-2.586
	c9.257-2.234,18.41-0.889,25.95,2.917c10.674,5.378,18.1,15.69,17.976,27.76c-0.755,76.681,23.137,147.497,55.147,207.722
	c54.103,101.741,131.404,173.209,152.296,191.474c5.73,5.006,10.705,10.684,14.542,16.962
	C472.813,470.771,468.387,478.114,458.075,481.031z"/>
<path style="fill:#FFF5CC;" d="M458.075,481.031c-18.12-2.565-34.813-7.261-34.813-7.261
	c-109.55-36.582-172.661-97.531-208.674-159.939c-49.965-86.589-47.763-176.022-45.073-207.185
	c1.955-22.733,11.284-46.852,23.395-66.141c7.509-11.966,17.479-23.106,30.583-28.96c10.674,5.378,18.1,15.69,17.976,27.76
	c-0.755,76.681,23.137,147.497,55.147,207.722c54.103,101.741,131.404,173.209,152.296,191.474
	c5.73,5.006,10.705,10.684,14.542,16.962C472.813,470.771,468.387,478.114,458.075,481.031z"/>
<path style="fill:#AA6100;" d="M483.304,502.727l-51.048-25.203c-6.121-3.022-8.657-10.502-5.635-16.623l3.895-7.889
	c3.022-6.121,10.502-8.657,16.623-5.635l51.048,25.203c8.291,4.093,11.724,14.224,7.632,22.515l0,0
	C501.725,503.385,491.593,506.82,483.304,502.727z"/>
<path style="fill:#FFD422;" d="M388.789,473.77c-109.55-36.582-172.661-97.531-208.674-159.939
	c17.8-6.805,36.872-10.694,56.554-11.232c5.485-0.153,9.9-0.017,12.95,0.157c1.72,0.098,3.407,0.455,5.022,1.054l1.186,0.44
	c0,0,1.124-7.34,6.844-16.793c9.308-15.39,20.809-28.96,33.945-40.43c54.103,101.741,131.404,173.209,152.296,191.474
	c5.73,5.006,10.705,10.684,14.542,16.962C492.495,502.947,388.789,473.77,388.789,473.77z"/>
<path style="fill:#FFDE55;" d="M469.845,204.985l-44.546-0.31c-65.48-5.264-127.194,27.687-161.201,83.889
	c-1.024,1.686-1.944,3.268-2.772,4.737c-3.775,6.743-5.502,10.953-5.502,10.953c-6.071-17.231-10.508-50.017-10.508-50.017
	c-2.989-64.3,37.823-122.954,99.528-141.291c69.534-20.654,124.598,18.172,142.357,33.003c0,0,22.568,19.175,24.647,35.682
	C513.325,193.359,504.472,203.754,469.845,204.985z"/>
<path style="fill:#FFE477;" d="M469.845,204.985l-44.546-0.31c-65.48-5.264-127.194,27.687-161.201,83.889
	c-1.024,1.686-1.944,3.268-2.772,4.737c-1.407-8.233-2.213-14.242-2.213-14.242c-2.989-64.3,37.813-122.954,99.517-141.291
	c69.544-20.654,124.609,18.172,142.357,33.003c0,0,5.213,4.427,10.86,10.86C513.325,193.359,504.472,203.754,469.845,204.985z"/>
<path style="fill:#EEBF00;" d="M423.261,473.77c0,0,16.693,4.696,34.813,7.261c-21.658,6.133-69.286-7.261-69.286-7.261
	c-109.55-36.582-172.661-97.531-208.674-159.939c9.598-3.672,19.558-6.485,29.797-8.388c1.5,2.793,3.061,5.595,4.675,8.388
	C250.601,376.239,313.712,437.188,423.261,473.77z"/>
<path style="fill:#FFDE55;" d="M255.824,304.254c0,0-4.675-0.6-12.68-0.621c-1.562,0-3.248,0.01-5.047,0.062
	c-65.666,1.81-125.974,39.881-153.744,99.404l-21.74,38.888c-16.569,26.901-29.187,31.411-38.454,26.622
	c-15.214-7.84-21.44-40.688-21.44-40.688c-4.127-22.764-10.694-89.826,41.619-140.081c46.418-44.598,117.586-51.103,172.009-16.734
	C216.346,271.105,243.847,290.467,255.824,304.254z"/>
<path style="fill:#FFE477;" d="M243.144,303.633c-1.562,0-3.248,0.01-5.047,0.062c-65.666,1.81-125.974,39.881-153.744,99.404
	l-21.74,38.888c-16.569,26.901-29.187,31.411-38.454,26.622c-2.896-8.253-4.209-15.183-4.209-15.183
	c-4.127-22.754-10.684-89.816,41.619-140.071c46.428-44.598,117.586-51.103,172.019-16.745
	C233.587,296.61,237.559,299.413,243.144,303.633z"/>
<g>
</g>
<g>
</g>
<g>
</g>
<g>
</g>
<g>
</g>
<g>
</g>
<g>
</g>
<g>
</g>
<g>
</g>
<g>
</g>
<g>
</g>
<g>
</g>
<g>
</g>
<g>
</g>
<g>
</g>
</svg>
