<svg id="Layer_1" enable-background="new 0 0 512 512" height="512" viewBox="0 0 512 512" width="512" xmlns="http://www.w3.org/2000/svg"><path d="m509.404 199.944c0-17.928-7.021-34.821-19.772-47.575-.014-.014-.029-.029-.043-.043-6.85-6.84-14.897-12.032-23.655-15.375l26.359-26.318c12.708-12.689 19.707-29.617 19.707-47.663 0-16.891-6.15-32.786-17.356-45.159 0 0-.148-.155-.225-.226-.071-.077-.221-.221-.221-.221-12.371-11.211-28.265-17.364-45.156-17.364-18.043 0-34.968 7-47.654 19.711l-26.313 26.364c-3.343-8.76-8.534-16.808-15.372-23.659-.014-.015-.029-.029-.043-.043-12.752-12.755-29.642-19.777-47.567-19.777-37.153 0-67.38 30.272-67.38 67.482 0 .121.001.243.004.364l2.958 122.468c.093 3.87 1.67 7.556 4.405 10.296l28.13 28.184.222.221.221.222 28.179 28.135c2.739 2.735 6.424 4.312 10.294 4.406l122.445 2.958c.121.002.243.004.364.004 37.203 0 67.469-30.232 67.469-67.392z" fill="#dada3b"/><path d="m509.404 199.944c0-17.928-7.021-34.821-19.772-47.575-.014-.014-.029-.029-.043-.043-6.85-6.84-14.897-12.032-23.655-15.375l26.359-26.318c12.708-12.689 19.707-29.617 19.707-47.663 0-16.891-6.15-32.786-17.356-45.159 0 0-.148-.155-.225-.226-.07-.077-.217-.217-.22-.22l-213.988 214.026.22.22.221.222 28.179 28.135c2.739 2.735 6.424 4.312 10.294 4.406l122.445 2.958c.121.002.243.004.364.004 37.204 0 67.47-30.232 67.47-67.392z" fill="#9dbc29"/><path d="m368.081 292.523c4.322-27.806-4.201-55.402-23.387-75.712-.61-.646-1.231-1.284-1.864-1.917-.014-.014-.035-.03-.043-.043l-22.818-22.783-22.779-22.823c-.013-.008-.029-.029-.043-.043-.633-.633-1.271-1.254-1.917-1.864-20.306-19.19-47.897-27.715-75.698-23.392-28.341 4.408-52.555 21.327-66.432 46.421l-149.989 271.208c-.428.774-.787 1.584-1.073 2.421-4.511 13.191-1.404 27.449 8.047 37.57 10.118 9.451 24.819 13.003 38.006 8.492.837-.286 1.647-.645 2.42-1.073l271.157-150.017c25.089-13.881 42.006-38.099 46.413-66.445z" fill="#ffb454"/><path d="m368.081 292.523c4.322-27.806-4.201-55.402-23.387-75.712-.61-.646-1.231-1.284-1.864-1.917-.014-.014-.035-.03-.043-.043l-22.818-22.783-.22-.221-309.663 309.719c10.118 9.45 24.818 13.002 38.004 8.491.837-.286 1.647-.645 2.42-1.073l271.157-150.017c25.09-13.88 42.007-38.098 46.414-66.444z" fill="#ff7d47"/><path d="m228.061 217.587c-.003-.003-.006-.006-.009-.009l-53.439-53.368c-7.682 6.431-14.334 14.168-19.672 22.995l51.797 51.729c5.886 5.877 15.428 5.86 21.314-.036 5.883-5.896 5.886-15.433.009-21.311z" fill="#ffdd54"/><path d="m233.332 343.664c-5.886-5.876-15.429-5.86-21.315.036-5.883 5.894-5.887 15.431-.009 21.309.003.003.006.006.009.009l35.183 35.147 27.477-15.202z" fill="#ff4d05"/><path d="m117.457 331.829c-.003-.003-.007-.007-.01-.01l-27.418-27.41-15.194 27.473 21.297 21.292c5.886 5.877 15.429 5.86 21.314-.037 5.885-5.894 5.888-15.431.011-21.308z" fill="#ff7d47"/><path d="m159.725 448.561-26.148-26.133c-5.886-5.876-15.429-5.861-21.315.037-5.883 5.894-5.886 15.431-.009 21.309.003.003.006.006.009.009l19.988 19.978z" fill="#ffdd54"/></svg>