<?xml version="1.0" encoding="iso-8859-1"?>
<!-- Generator: Adobe Illustrator 19.0.0, SVG Export Plug-In . SVG Version: 6.00 Build 0)  -->
<svg version="1.1" id="Capa_1" xmlns="http://www.w3.org/2000/svg" xmlns:xlink="http://www.w3.org/1999/xlink" x="0px" y="0px"
	 viewBox="0 0 512 512" style="enable-background:new 0 0 512 512;" xml:space="preserve">
<path style="fill:#8034AD;" d="M427.15,465.969c-1.963,5.047-4.143,9.581-6.528,13.549c-0.267,0.452-0.545,0.894-0.833,1.336
	c-6.743,10.629-16.026,18.75-26.594,24.034c-19.274,9.632-42.815,9.807-62.943-1.48l-94.193-57.7c-0.01,0-0.021-0.01-0.021-0.01
	l-35.403-21.69c-0.082-0.051-0.164-0.092-0.247-0.144c-0.01,0-0.01-0.01-0.01-0.01c-31.816-17.887-62.069-45.93-85.178-78.691
	c-4.749-6.733-9.2-13.651-13.292-20.734c-18.452-31.836-29.852-66.746-29.852-100.453l-0.473-54.246l-0.164-19.377l-0.802-97.924
	l39.289-0.689l5.777-0.103l262.502-4.585c0.329,0.73,0.771,1.573,1.09,2.313c23.366,52.94,40.718,118.227,51.049,182.454
	c0.894,5.551,1.737,11.092,2.529,16.622C445.489,337.082,444.481,421.488,427.15,465.969z"/>
<path style="fill:#A258CD;" d="M427.15,465.969c-1.963,5.047-4.143,9.581-6.528,13.549c-0.267,0.452-0.545,0.894-0.833,1.336
	c-16.417,4.461-34.519,2.714-50.473-6.229l-94.193-57.7c-0.01,0-0.021-0.01-0.021-0.01l-35.403-21.69
	c-0.082-0.051-0.164-0.093-0.247-0.144c-0.01,0-0.01-0.01-0.01-0.01c-31.816-17.887-62.069-45.93-85.178-78.691
	c-4.749-6.733-9.2-13.651-13.292-20.734c-18.452-31.836-29.852-66.746-29.852-100.453l-0.473-54.246l-0.164-19.377l-0.576-69.83
	l5.777-0.103l262.502-4.585c0.329,0.73,0.771,1.573,1.09,2.313c23.366,52.94,40.718,118.227,51.049,182.454
	c0.894,5.551,1.737,11.092,2.529,16.622C445.489,337.082,444.481,421.488,427.15,465.969z"/>
<g>
	<path style="fill:#5A2479;" d="M102.835,178.908c-1.367,2.662-4.071,4.184-6.867,4.184c-1.182,0-2.395-0.278-3.526-0.853
		c-8.347-4.297-15.378-8.717-20.858-12.51l-0.164-19.377c4.513,3.67,14.422,11.133,28.084,18.175
		C103.298,170.479,104.778,175.125,102.835,178.908z"/>
	<path style="fill:#5A2479;" d="M122.33,194.342c13.562,4.043,27.226,6.152,40.613,6.27c0.023,0,0.045,0,0.069,0
		c4.226,0,7.671-3.408,7.708-7.643c0.038-4.258-3.384-7.74-7.642-7.777c-11.94-0.105-24.167-1.997-36.343-5.628
		c-4.079-1.215-8.374,1.106-9.591,5.186C115.928,188.831,118.25,193.125,122.33,194.342z"/>
	<path style="fill:#5A2479;" d="M280.203,285.243c1.764,0.025,3.516,0.038,5.252,0.038c21.944,0,43.378-2.004,63.709-5.954
		c4.179-0.812,6.91-4.859,6.098-9.038s-4.847-6.91-9.039-6.098c-19.364,3.762-39.809,5.67-60.767,5.67
		c-1.664,0-3.342-0.011-5.033-0.036c-4.238-0.087-7.758,3.342-7.818,7.599C272.543,281.682,275.946,285.183,280.203,285.243z"/>
	<path style="fill:#5A2479;" d="M432.855,248.44c-11.462,6.877-29.143,15.831-52.982,23.201c-0.761,0.236-1.521,0.35-2.282,0.35
		c-3.29,0-6.332-2.128-7.36-5.438c-1.264-4.06,1.018-8.378,5.088-9.642c26.82-8.296,45.22-18.678,55.007-25.093
		C431.221,237.369,432.063,242.909,432.855,248.44z"/>
	<path style="fill:#5A2479;" d="M257.113,440.639c-0.473,3.917-3.803,6.785-7.638,6.785c-0.319,0-0.627-0.021-0.946-0.062
		c-4.246-0.514-8.419-1.069-12.469-1.655c-0.01,0-0.021-0.01-0.021-0.01l-35.403-21.69c-0.082-0.051-0.164-0.092-0.247-0.144
		c13.086,2.652,30.839,5.849,50,8.193C254.626,432.57,257.627,436.414,257.113,440.639z"/>
	<path style="fill:#5A2479;" d="M350.523,427.973c-12.437,4.886-29.755,7.363-51.475,7.363c-5.815,0-12.015-0.181-18.424-0.538
		c-4.228-0.227-7.89,3.018-8.126,7.269s3.018,7.89,7.269,8.126c6.694,0.373,13.181,0.562,19.282,0.562
		c23.658,0,42.874-2.837,57.113-8.431c3.963-1.557,5.914-6.032,4.357-9.995C358.96,428.367,354.488,426.415,350.523,427.973z"/>
	<path style="fill:#5A2479;" d="M294.19,151.1c0.614,0,15.224-0.04,33.17-3.479c4.182-0.801,6.922-4.841,6.122-9.022
		c-0.802-4.181-4.839-6.929-9.023-6.121c-16.435,3.149-30.136,3.203-30.273,3.203c-4.256,0.002-7.705,3.453-7.705,7.71
		C286.48,147.648,289.932,151.1,294.19,151.1z"/>
	<path style="fill:#5A2479;" d="M355.377,138.801c1.065,0,2.147-0.222,3.181-0.691c4.505-2.044,8.67-4.334,12.379-6.807
		c3.542-2.362,4.499-7.15,2.137-10.691c-2.361-3.542-7.146-4.499-10.692-2.137c-3.017,2.012-6.446,3.894-10.194,5.593
		c-3.876,1.759-5.594,6.328-3.835,10.207C349.641,137.119,352.443,138.801,355.377,138.801z"/>
	<path style="fill:#5A2479;" d="M182.57,358.573c4.062,0,7.462-3.175,7.69-7.281c0.236-4.252-3.017-7.89-7.269-8.127
		c-9.163-0.511-19.407-1.92-30.447-4.189c-4.176-0.856-8.247,1.829-9.104,6s1.83,8.246,6,9.104
		c11.778,2.42,22.778,3.927,32.694,4.48C182.28,358.569,182.425,358.573,182.57,358.573z"/>
	<path style="fill:#5A2479;" d="M128.473,341.122c-1.007,3.341-4.071,5.489-7.381,5.489c-0.74,0-1.48-0.103-2.22-0.329
		c-1.254-0.38-2.477-0.75-3.67-1.12c-4.749-6.733-9.2-13.651-13.292-20.734c5.222,1.891,12.665,4.472,21.392,7.093
		C127.383,332.744,129.696,337.041,128.473,341.122z"/>
</g>
<path style="fill:#FFA733;" d="M378.989,52.416c0,25.463-53.352,46.67-124.117,51.419c-9.725,0.668-19.778,1.007-30.068,1.007
	c-85.157,0-154.185-23.469-154.185-52.426C70.619,23.469,139.647,0,224.804,0c10.29,0,20.344,0.339,30.068,1.007
	C325.638,5.757,378.989,26.964,378.989,52.416z"/>
<path style="fill:#FFB655;" d="M378.989,52.416c0,25.463-53.352,46.67-124.117,51.419c-2.909,0.195-5.839,0.37-8.799,0.514
	c-75.114-3.516-132.968-25.422-132.968-51.933c0-7.299,4.389-14.248,12.315-20.559c20.847-16.612,66.191-28.814,120.612-31.363
	c2.971,0.144,5.921,0.308,8.841,0.514C305.346,4.4,346.958,16.16,366.674,31.857C374.6,38.169,378.989,45.118,378.989,52.416z"/>
<g>
</g>
<g>
</g>
<g>
</g>
<g>
</g>
<g>
</g>
<g>
</g>
<g>
</g>
<g>
</g>
<g>
</g>
<g>
</g>
<g>
</g>
<g>
</g>
<g>
</g>
<g>
</g>
<g>
</g>
</svg>
